<svg id="eSzbXnTAqxh1" xmlns="http://www.w3.org/2000/svg" xmlns:xlink="http://www.w3.org/1999/xlink" viewBox="0 0 512 512" shape-rendering="geometricPrecision" text-rendering="geometricPrecision"><g><g><g><path d="M247.467,273.067c-14.114,0-25.6,11.486-25.6,25.6s11.486,25.6,25.6,25.6s25.6-11.486,25.6-25.6-11.486-25.6-25.6-25.6Zm0,34.133c-4.702,0-8.533-3.831-8.533-8.533s3.831-8.533,8.533-8.533s8.533,3.831,8.533,8.533-3.831,8.533-8.533,8.533Z"/><path d="M341.333,332.8v-59.733c9.412,0,17.067-7.654,17.067-17.067v-34.133c0-9.412-7.654-17.067-17.067-17.067h-34.133v-59.733c0-4.71-3.823-8.533-8.533-8.533s-8.533,3.823-8.533,8.533v59.733h-34.134v-59.733c0-4.71-3.823-8.533-8.533-8.533s-8.533,3.823-8.533,8.533v59.733h-34.134v-59.733c0-4.71-3.823-8.533-8.533-8.533s-8.533,3.823-8.533,8.533v59.733h-34.134c-9.412,0-17.067,7.654-17.067,17.067v34.133c0,9.412,7.654,17.067,17.067,17.067v59.733c0,23.526,19.14,42.667,42.667,42.667h102.4c23.526,0,42.666-19.141,42.666-42.667Z" transform="translate(.0005 0)"/><path d="" transform="translate(.0005 0)"/><path d="M230.367847,383.983c-4.719.026-8.501847,3.874-8.467847,8.585.428,65.86,54,119.432,119.433,119.432h51.251C458.436,511.573,512,457.984,512,392.533L512,256C512,114.842,397.158,0,256,0s-256,114.842-256,256c0,68.378,26.633,132.659,75.46,181.461c3.994,3.43,11.298,7.398,19.43,7.398c5.837,0,12.109-2.048,17.877-7.825c6.323-6.332,7.526-12.885,7.415-17.271-.273-10.769-8.388-18.406-9.003-18.944C72.508,362.121,51.2,310.699,51.2,256C51.2,143.078,143.078,51.2,256,51.2s204.8,91.878,204.8,204.8v136.533c0,37.641-30.626,68.267-68.267,68.267h-51.2c-37.641,0-68.267-30.635-68.267-68.284c0-4.71-3.823-8.533-8.533-8.533" transform="translate(.864427 0.091926)"/><path d="M392.533,477.866c47.053,0,85.333-38.281,85.333-85.333v-136.533c0-122.334-99.533-221.867-221.867-221.867s-221.866,99.533-221.866,221.867c0,30.16144,5.980622,59.405694,17.420675,86.417911C62.588687,368.473749,78.703385,392.452804,99.43,413.175c.589.538,3.61,3.908,3.686,7.023.026.981-.196,2.543-2.415,4.77-5.7,5.7-12.305,1.05-13.653-.017C41.924,379.819,17.067,319.821,17.067,256C17.067,124.245,124.254,17.067,256,17.067s238.933,107.178,238.933,238.933v136.533c0,56.098-45.961,102.033-102.4,102.4h-51.2" transform="translate(.864427 0.091926)"/></g></g></g><path d="" fill="none" stroke="#3f5787" stroke-width="1.024"/></svg>
