<svg id="eUgVACjPwcI1" xmlns="http://www.w3.org/2000/svg" xmlns:xlink="http://www.w3.org/1999/xlink" viewBox="0 0 288 288" shape-rendering="geometricPrecision" text-rendering="geometricPrecision"><path d="M188.3,144c0,24.5-19.8,44.3-44.3,44.3s-44.3-19.8-44.3-44.3s19.8-44.3,44.3-44.3s44.3,19.8,44.3,44.3Zm99.7,0c0,6.1-5,11.1-11.1,11.1h-28.3c-5.2,49.2-44.4,88.4-93.6,93.6v28.3c0,6.1-5,11.1-11.1,11.1s-11.1-5-11.1-11.1v-28.3c-49.2-5.2-88.4-44.4-93.6-93.6h-28.1C5,155.1,0,150.1,0,144s5-11.1,11.1-11.1h28.3C44.6,83.7,83.8,44.5,133,39.3v-28.2C132.9,5,137.9,0,144,0s11.1,5,11.1,11.1v28.3c49.2,5.2,88.4,44.4,93.6,93.6h28.3c6-.1,11,4.9,11,11Zm-60.9,0c0-45.8-37.3-83.1-83.1-83.1s-83.1,37.3-83.1,83.1s37.3,83.1,83.1,83.1s83.1-37.3,83.1-83.1Z" transform="matrix(.8 0 0 0.8 28.8 28.810001)" fill="#fff"/></svg>
