<svg id="eYEBX4Q8ZxM1" xmlns="http://www.w3.org/2000/svg" xmlns:xlink="http://www.w3.org/1999/xlink" viewBox="0 0 20 20" shape-rendering="geometricPrecision" text-rendering="geometricPrecision"><ellipse rx="2" ry="2" transform="matrix(4.1611 0 0 4.1611 9.995 10)" fill="none" stroke="#fff" stroke-width="0.2"/><path d="M4.16,4.16L5.58,5.58c-2.302256,1.866259-3.177368,4.9815-2.183714,7.773624s3.64006,4.654136,6.603714,4.646376c2.957564-.00416,5.593377-1.866661,6.584987-4.65304s.125017-5.895308-2.164987-7.76696l1.42-1.42c2.866139,2.447891,3.903308,6.422475,2.598729,9.958715s-4.674522,5.884966-8.443729,5.884966-7.139151-2.348726-8.443729-5.884966-.26741-7.510824,2.598729-9.958715h.01ZM9,0h2v8h-2v-8Z" transform="matrix(.588028 0 0 0.588024 4.12266 3.398539)" fill="#fff" fill-rule="evenodd" stroke-linecap="round"/></svg>
