<svg xmlns="http://www.w3.org/2000/svg" viewBox="0 0 380.06 257.38"><defs><style>.cls-1{fill:#fff;}</style></defs><g id="Layer_2" data-name="Layer 2"><g id="Layer_3" data-name="Layer 3"><path class="cls-1" d="M189.76,101.58c-58.73,0-133.64,9.91-133.64,69s74.91,74,133.64,74,134.36-14.91,134.36-74S248.49,101.58,189.76,101.58Zm0,121c-48.22,0-115-6.85-115-56s66.74-59,115-59,115,9.85,115,59S238,222.58,189.76,222.58Z"/><path class="cls-1" d="M250.57,152.69l109.49-48.76L329.87,88.52,226.09,134.74C236.14,139.9,244.46,146,250.57,152.69Z"/><path class="cls-1" d="M141.27,134.67,37.64,88.52,8,104.17,116.75,152.6C122.87,145.89,131.21,139.82,141.27,134.67Z"/><path class="cls-1" d="M229.24,197.65l120.63,53.73L380.06,236l-120.57-53.7A120.46,120.46,0,0,1,229.24,197.65Z"/><path class="cls-1" d="M0,241.73l29.64,15.65,120.51-53.67a120.73,120.73,0,0,1-30.29-15.36Z"/><polygon class="cls-1" points="189.52 119.52 265.52 0 189.52 52 189.52 52 113.12 0 189.12 119.52 189.12 120.16 189.32 119.84 189.52 120.16 189.52 119.52"/></g></g></svg>