<svg id="eWtnTgFVhYc1" xmlns="http://www.w3.org/2000/svg" xmlns:xlink="http://www.w3.org/1999/xlink" viewBox="-161 253 288 288" shape-rendering="geometricPrecision" text-rendering="geometricPrecision"><circle r="138.6" transform="translate(-17 397)" opacity="0.15" fill="none" stroke="#fff" stroke-width="3" stroke-miterlimit="10"/><circle r="136.776" transform="translate(-17 397)" fill="none"/><line x1="-84.274" y1="280.478" x2="-73.332" y2="299.431" fill="none" stroke="#fff" stroke-width="2" stroke-linecap="round" stroke-miterlimit="10"/><line x1="-133.522" y1="329.726" x2="-114.569" y2="340.668" fill="none" stroke="#fff" stroke-width="2" stroke-linecap="round" stroke-miterlimit="10"/><line x1="-133.522" y1="464.274" x2="-114.569" y2="453.332" fill="none" stroke="#fff" stroke-width="2" stroke-linecap="round" stroke-miterlimit="10"/><line x1="-84.274" y1="513.522" x2="-73.332" y2="494.569" fill="none" stroke="#fff" stroke-width="2" stroke-linecap="round" stroke-miterlimit="10"/><line x1="50.274" y1="513.522" x2="39.332" y2="494.569" fill="none" stroke="#fff" stroke-width="2" stroke-linecap="round" stroke-miterlimit="10"/><line x1="99.522" y1="464.274" x2="80.569" y2="453.332" fill="none" stroke="#fff" stroke-width="2" stroke-linecap="round" stroke-miterlimit="10"/><line x1="99.522" y1="329.726" x2="80.569" y2="340.668" fill="none" stroke="#fff" stroke-width="2" stroke-linecap="round" stroke-miterlimit="10"/><line x1="50.274" y1="280.478" x2="39.332" y2="299.431" fill="none" stroke="#fff" stroke-width="2" stroke-linecap="round" stroke-miterlimit="10"/><line x1="-40.364" y1="264.496" x2="-37.917" y2="278.375" fill="none" stroke="#fff" stroke-linecap="round" stroke-miterlimit="10"/><line x1="-63.017" y1="270.567" x2="-58.198" y2="283.81" fill="none" stroke="#fff" stroke-linecap="round" stroke-miterlimit="10"/><line x1="-84.274" y1="280.478" x2="-77.227" y2="292.684" fill="none" stroke="#fff" stroke-linecap="round" stroke-miterlimit="10"/><line x1="-103.485" y1="293.931" x2="-94.427" y2="304.727" fill="none" stroke="#fff" stroke-linecap="round" stroke-miterlimit="10"/><line x1="-120.069" y1="310.515" x2="-109.273" y2="319.573" fill="none" stroke="#fff" stroke-linecap="round" stroke-miterlimit="10"/><line x1="-133.522" y1="329.726" x2="-121.316" y2="336.773" fill="none" stroke="#fff" stroke-linecap="round" stroke-miterlimit="10"/><line x1="-143.433" y1="350.983" x2="-130.19" y2="355.802" fill="none" stroke="#fff" stroke-linecap="round" stroke-miterlimit="10"/><line x1="-149.504" y1="373.636" x2="-135.625" y2="376.083" fill="none" stroke="#fff" stroke-linecap="round" stroke-miterlimit="10"/><line x1="-149.504" y1="420.364" x2="-135.625" y2="417.917" fill="none" stroke="#fff" stroke-linecap="round" stroke-miterlimit="10"/><line x1="-143.433" y1="443.017" x2="-130.19" y2="438.198" fill="none" stroke="#fff" stroke-linecap="round" stroke-miterlimit="10"/><line x1="-133.522" y1="464.274" x2="-121.316" y2="457.227" fill="none" stroke="#fff" stroke-linecap="round" stroke-miterlimit="10"/><line x1="-120.069" y1="483.485" x2="-109.273" y2="474.427" fill="none" stroke="#fff" stroke-linecap="round" stroke-miterlimit="10"/><line x1="-103.485" y1="500.069" x2="-94.427" y2="489.273" fill="none" stroke="#fff" stroke-linecap="round" stroke-miterlimit="10"/><line x1="-84.274" y1="513.522" x2="-77.227" y2="501.316" fill="none" stroke="#fff" stroke-linecap="round" stroke-miterlimit="10"/><line x1="-63.017" y1="523.433" x2="-58.198" y2="510.19" fill="none" stroke="#fff" stroke-linecap="round" stroke-miterlimit="10"/><line x1="-40.364" y1="529.504" x2="-37.917" y2="515.625" fill="none" stroke="#fff" stroke-linecap="round" stroke-miterlimit="10"/><line x1="6.364" y1="529.504" x2="3.916" y2="515.625" fill="none" stroke="#fff" stroke-linecap="round" stroke-miterlimit="10"/><line x1="29.017" y1="523.433" x2="24.198" y2="510.19" fill="none" stroke="#fff" stroke-linecap="round" stroke-miterlimit="10"/><line x1="50.274" y1="513.522" x2="43.227" y2="501.316" fill="none" stroke="#fff" stroke-linecap="round" stroke-miterlimit="10"/><line x1="69.485" y1="500.069" x2="60.427" y2="489.273" fill="none" stroke="#fff" stroke-linecap="round" stroke-miterlimit="10"/><line x1="86.069" y1="483.485" x2="75.273" y2="474.427" fill="none" stroke="#fff" stroke-linecap="round" stroke-miterlimit="10"/><line x1="99.522" y1="464.274" x2="87.316" y2="457.227" fill="none" stroke="#fff" stroke-linecap="round" stroke-miterlimit="10"/><line x1="109.433" y1="443.017" x2="96.19" y2="438.198" fill="none" stroke="#fff" stroke-linecap="round" stroke-miterlimit="10"/><line x1="115.504" y1="420.364" x2="101.625" y2="417.917" fill="none" stroke="#fff" stroke-linecap="round" stroke-miterlimit="10"/><line x1="115.504" y1="373.636" x2="101.625" y2="376.083" fill="none" stroke="#fff" stroke-linecap="round" stroke-miterlimit="10"/><line x1="109.433" y1="350.983" x2="96.19" y2="355.802" fill="none" stroke="#fff" stroke-linecap="round" stroke-miterlimit="10"/><line x1="99.522" y1="329.726" x2="87.316" y2="336.773" fill="none" stroke="#fff" stroke-linecap="round" stroke-miterlimit="10"/><line x1="86.069" y1="310.515" x2="75.273" y2="319.573" fill="none" stroke="#fff" stroke-linecap="round" stroke-miterlimit="10"/><line x1="69.485" y1="293.931" x2="60.427" y2="304.727" fill="none" stroke="#fff" stroke-linecap="round" stroke-miterlimit="10"/><line x1="50.274" y1="280.478" x2="43.227" y2="292.684" fill="none" stroke="#fff" stroke-linecap="round" stroke-miterlimit="10"/><line x1="29.017" y1="270.567" x2="24.198" y2="283.81" fill="none" stroke="#fff" stroke-linecap="round" stroke-miterlimit="10"/><line x1="6.364" y1="264.496" x2="3.916" y2="278.375" fill="none" stroke="#fff" stroke-linecap="round" stroke-miterlimit="10"/><g transform="matrix(.8 0 0 0.8-37.296699 79.399402)"><path d="M-119.747,407.94l-5.807-21.885h2.971l3.329,14.346c.359,1.503.667,2.995.925,4.478.558-2.339.885-3.687.986-4.046l4.165-14.779h3.494l3.135,11.077c.787,2.747,1.353,5.329,1.702,7.747.278-1.384.642-2.971,1.09-4.762l3.433-14.062h2.911l-6.001,21.885h-2.792l-4.612-16.675c-.388-1.394-.617-2.25-.686-2.567-.229,1.005-.443,1.861-.642,2.567l-4.643,16.675-2.958.001v0Z" fill="#f1f2f2"/></g><g transform="matrix(.8 0 0 0.8-3.3747 113.688194)"><path d="M-25.297,496.799l2.642-.231c.125,1.058.417,1.927.874,2.606s1.166,1.227,2.128,1.646s2.045.628,3.248.628c1.068,0,2.011-.158,2.829-.476s1.428-.753,1.827-1.307c.399-.553.598-1.157.598-1.812c0-.664-.193-1.244-.577-1.739-.385-.496-1.02-.912-1.905-1.248-.568-.221-1.824-.565-3.768-1.032s-3.306-.908-4.085-1.321c-1.011-.529-1.762-1.186-2.258-1.97s-.745-1.662-.745-2.635c0-1.068.304-2.067.91-2.995s1.492-1.634,2.656-2.115c1.165-.482,2.459-.722,3.883-.722c1.569,0,2.952.253,4.151.758c1.198.505,2.119,1.248,2.763,2.231.645.981.991,2.093,1.04,3.334l-2.685.202c-.144-1.338-.632-2.349-1.464-3.032-.833-.683-2.062-1.025-3.689-1.025-1.694,0-2.927.31-3.702.931-.774.62-1.163,1.37-1.163,2.245c0,.76.274,1.386.823,1.877.539.491,1.947.993,4.223,1.508s3.837.965,4.684,1.35c1.232.568,2.142,1.287,2.728,2.158s.881,1.874.881,3.01c0,1.126-.322,2.187-.967,3.183-.645.997-1.571,1.771-2.777,2.324-1.208.553-2.567.831-4.079.831-1.915,0-3.519-.279-4.814-.837s-2.31-1.398-3.046-2.519c-.737-1.125-1.126-2.392-1.164-3.806Z" fill="#f1f2f2"/></g><g transform="matrix(.8 0 0 0.8 31.5969 79.489697)"><path d="M74.819,408.391v-21.885h15.823v2.583h-12.927v6.702h12.107v2.567h-12.107v7.449h13.435v2.583h-16.331v.001Z" fill="#f1f2f2"/></g><g transform="matrix(.8 0 0 0.8-3.4202 45.2858)"><path d="M-25.722,312.371v-21.884h2.971l11.495,17.182v-17.182h2.776v21.884h-2.971l-11.495-17.197v17.197h-2.776Z" fill="#f1f2f2"/></g><polygon points="-22.471,533.776 -17,522.834 -11.529,533.776" fill="#f1f2f2"/><polygon points="119.776,402.471 108.834,397 119.776,391.529" fill="#f1f2f2"/><polygon points="-11.529,260.224 -17,271.165 -22.471,260.224" fill="#f1f2f2"/><polygon points="-153.776,391.529 -142.835,397 -153.776,402.471" fill="#f1f2f2"/></svg>
