<svg id="ezoveaHr9mG1" xmlns="http://www.w3.org/2000/svg" xmlns:xlink="http://www.w3.org/1999/xlink" viewBox="0 0 22 22" shape-rendering="geometricPrecision" text-rendering="geometricPrecision"><path d="M6,3C4.343146,3,3,4.343146,3,6s1.343146,3,3,3c.371679-.001144.739909-.071346,1.085938-.207031C7.625209,9.613917,8,10.435386,8,11c0,.563623-.372449,1.384498-.910156,2.205078C6.742464,13.069584,6.372869,13.000037,6,13c-1.656854,0-3,1.343146-3,3s1.343146,3,3,3s3-1.343146,3-3c-.001245-.369585-.070772-.735758-.205078-1.080078C9.61827,14.377486,10.439544,14,11,14c.55949,0,1.37815.375313,2.201172.916016C13.067727,15.261814,12.999518,15.629347,13,16c0,1.656854,1.343146,3,3,3s3-1.343146,3-3-1.343146-3-3-3c-.371679.001144-.739909.071346-1.085938.207031C14.374789,12.386088,14,11.564614,14,11c0-.563623.372445-1.384496.910156-2.205078.000666.00065.001333.0013.002.00195C15.259037,8.931455,15.627926,9.000336,16,9c1.656854,0,3-1.343146,3-3s-1.343146-3-3-3-3,1.343146-3,3c.001245.369585.070772.735758.205078,1.080078C12.381727,7.622522,11.560456,8,11,8c-.55949,0-1.378147-.375308-2.201172-.916016C8.932273,6.738186,9.000482,6.370653,9,6C9,4.343146,7.656854,3,6,3ZM6,4c1.104569,0,2,.895431,2,2-.000239.152559.83363.935448.798828,1.083984-.457792-.368834-1.744172-1.389773-2.091797-1.791015C6.522889,5.108736,6.274127,5.003626,6.013672,5c-.269931-.003626-.529861.102037-.720703.292969-.390424.390507-.390424,1.023555,0,1.414062.018792.019005.038339.037249.058594.054688.382461.333788,1.386029,1.595294,1.738281,2.03125C6.939477,8.828877,6.154594,7.999571,6,8C4.895431,8,4,7.104569,4,6s.895431-2,2-2ZM16,4c1.104569,0,2,.895431,2,2s-.895431,2-2,2c-.153941-.000579-.940113.832629-1.089844.796872.37051-.459203,1.394772-1.74673,1.796875-2.08984.390424-.390507.390424-1.023556,0-1.414063s-1.023555-.390423-1.414062,0c-.018266.017555-.035859.035797-.05274.054687-.337606.38184-1.604218,1.385194-2.039057,1.736328C13.165712,6.935524,14.000879,6.152634,14,6c0-1.104569.895431-2,2-2ZM6,14c.153941.00058.940113-.828727,1.089844-.792969-.370511.459203-1.394761,1.742824-1.796875,2.08594-.390423.390507-.390423,1.023555,0,1.414062s1.023555.390424,1.414062,0c.018265-.017555.035855-.035799.052734-.05469.337623-.381857,1.600316-1.385192,2.035157-1.736327C8.830382,15.064476,7.999121,15.847366,8,16c0,1.104569-.895431,2-2,2s-2-.895431-2-2s.895431-2,2-2Zm10,0c1.104569,0,2,.895431,2,2s-.895431,2-2,2-2-.895431-2-2c.000237-.152558-.833629-.931542-.798828-1.080078.457792.368835,1.744162,1.385856,2.091793,1.787109.390507.390423,1.023555.390423,1.414062,0s.390423-1.023555,0-1.414062c-.01717-.01465-.0336-.03387-.05078-.04883-.00259-.001979-.00519-.003946-.0078-.0059-.382475-.333732-1.386037-1.597212-1.738291-2.033161.150367-.035907.93525.795351,1.089844.794922Z" transform="matrix(1.2 0 0 1.2-2.2-2.237768)" fill="#019ae8" stroke="#fff" stroke-width="0.15"/><path d="M11,0.615966L9.3,3.962232l3.4-.000001L11,0.615966Z" transform="matrix(1.3 0 0 1.3-3.299998 7.850975)" fill="#fff" stroke="#fff" stroke-width="0.5" stroke-linecap="round" stroke-linejoin="round"/></svg>
